<?xml version="1.0" encoding="UTF-8"?>
<svg id="Layer_2" data-name="Layer 2" xmlns="http://www.w3.org/2000/svg" viewBox="0 0 631.76 196.6">
  <defs>
    <style>
      .cls-1 {
        fill: #8075ff;
      }

      .cls-2 {
        fill: #211a1d;
      }
    </style>
  </defs>
  <g id="Layer_1-2" data-name="Layer 1">
    <g>
      <g>
        <path class="cls-2" d="M174.85,85.8c-3.76-1.85-7.96-2.3-12.27-1.55,1.41-5.12,2.69-10.11,3.86-14.85,1.6-6.49-2.39-13.03-8.89-14.57L40.17,26.96c-6.5-1.54-13.01,2.51-14.5,9.02-11,48.12-23.58,124.04,41.24,139.44,29.48,7,50.28-4.38,65.32-23.38,1.88,2.64,4.26,4.74,7.14,6.15,13.33,6.53,32.07-4.38,41.87-24.36,9.8-19.99,6.94-41.49-6.39-48.02ZM169.56,128.1c-6.75,13.78-17.8,22.21-24.68,18.84-2.31-1.13-3.86-3.46-4.63-6.57,7.54-12.55,13.32-26.98,17.89-41.18,4.06-2.75,8.06-3.67,11.2-2.14,6.88,3.37,6.98,17.27.23,31.05Z"/>
        <path class="cls-1" d="M40.15,58.56c-7.28,2.39-11.37,3.73-18.65,6.12L1.24,104.73c-2.85,5.64-.6,12.52,5.04,15.38l24.44,12.37c5.64,2.85,12.52.6,15.38-5.04l20.27-40.05c-2.39-7.28-3.73-11.37-6.12-18.65l-20.09-10.17ZM68.08,33.59l-4.34-1.03-15.28,30.2,3.87,1.96,15.75-31.13Z"/>
      </g>
      <path class="cls-1" d="M40.17,26.96c-.24-8.93,75.61-30.96,167.1-26.33,160.88,8.14,221.4,91.18,304.11,51.32,32.42-15.62,75.26-53.5,89.89-41.32,5.32,4.43,6.67,15.3,7,18,1.99,16.11-6.88,21.96-7,34-.21,20.8,26.03,26.06,30,45,5.53,26.39-37.08,55.98-43,60-60.33,41-136.8,28-164,23-85.32-15.69-99.83-54.5-165-46-26.41,3.44-48.63,13.03-60,1-17.06-18.04,12.56-61.16-7-82-8.06-8.59-19.6-8.2-35-9-57.75-2.99-116.88-19.85-117.1-27.67Z"/>
      <g>
        <path class="cls-2" d="M271,127.09c1.83,0,3.4-.3,4.71-.89,1.31-.59,2.41-1.37,3.3-2.33.89-.96,1.59-2.08,2.11-3.34.52-1.26.93-2.53,1.22-3.82l.3-1.33h9.78l-.3,1.33c-.69,3.21-1.63,6.02-2.82,8.41-1.19,2.4-2.69,4.4-4.52,6-1.83,1.61-4,2.82-6.52,3.63-2.52.81-5.48,1.22-8.89,1.22-2.32,0-4.45-.35-6.37-1.04-1.93-.69-3.58-1.7-4.97-3.04-1.38-1.33-2.46-2.95-3.22-4.85-.77-1.9-1.15-4.09-1.15-6.56,0-.89.05-1.78.15-2.67.1-.89.27-1.9.52-3.04l2.45-11.56c1.53-7.16,4.25-12.49,8.15-15.97,3.9-3.48,8.99-5.23,15.27-5.23,2.47,0,4.68.4,6.63,1.19,1.95.79,3.61,1.87,4.97,3.22,1.36,1.36,2.4,2.95,3.11,4.78.72,1.83,1.07,3.78,1.07,5.86,0,.69-.05,1.38-.15,2.08-.1.69-.22,1.41-.37,2.15l-.3,1.33h-9.78l.3-1.33c.3-1.19.44-2.32.44-3.41,0-1.93-.56-3.57-1.67-4.93-1.11-1.36-3.05-2.04-5.82-2.04-1.63,0-3.11.31-4.45.93-1.33.62-2.5,1.46-3.48,2.52-.99,1.06-1.82,2.3-2.48,3.71s-1.17,2.88-1.52,4.41l-2.74,13.04c-.15.74-.27,1.47-.37,2.19-.1.72-.15,1.4-.15,2.04,0,2.22.58,4,1.74,5.34,1.16,1.33,3.1,2,5.82,2Z"/>
        <path class="cls-2" d="M338.82,111.97c0,3.46-.49,6.66-1.48,9.6-.99,2.94-2.45,5.47-4.37,7.6-1.93,2.12-4.34,3.79-7.23,5-2.89,1.21-6.24,1.82-10.04,1.82-2.17,0-4.21-.32-6.11-.96-1.9-.64-3.57-1.59-5-2.85-1.43-1.26-2.57-2.8-3.41-4.63-.84-1.83-1.26-3.9-1.26-6.23,0-3.8.59-7.2,1.78-10.19,1.19-2.99,2.8-5.52,4.85-7.6,2.05-2.08,4.47-3.66,7.26-4.74,2.79-1.09,5.79-1.63,9.01-1.63,2.32,0,4.47.36,6.45,1.07,1.98.72,3.67,1.72,5.08,3,1.41,1.29,2.51,2.84,3.3,4.67.79,1.83,1.19,3.85,1.19,6.08ZM317.1,127.24c1.78-.05,3.42-.44,4.93-1.19,1.51-.74,2.79-1.72,3.85-2.93,1.06-1.21,1.89-2.63,2.48-4.26.59-1.63.89-3.36.89-5.19,0-2.57-.69-4.51-2.08-5.82-1.38-1.31-3.24-1.96-5.56-1.96-1.78,0-3.41.38-4.89,1.15-1.48.77-2.77,1.78-3.85,3.04-1.09,1.26-1.93,2.71-2.52,4.34-.59,1.63-.89,3.34-.89,5.11,0,2.52.69,4.44,2.08,5.74,1.38,1.31,3.24,1.96,5.56,1.96Z"/>
        <path class="cls-2" d="M377.58,126.06v8.89h-31.8v-14.6l27.72-12.23v-1.33h-21.57v-8.6h30.46v14.38l-27.57,12.16v1.33h22.75Z"/>
        <path class="cls-2" d="M405.08,119.53c-.1.35-.17.72-.22,1.11-.05.4-.07.79-.07,1.19,0,1.88.54,3.3,1.63,4.26,1.09.96,2.57,1.45,4.45,1.45,2.67,0,4.72-.86,6.15-2.59,1.43-1.73,2.49-4.22,3.19-7.49l4.08-19.27h9.34l-9.71,45.81c-.35,1.68-1.16,3.06-2.45,4.15-1.29,1.09-2.77,1.63-4.45,1.63h-21.49v-8.89h17.71c1.33,0,2.15-.74,2.45-2.22l1.93-9.04h-1.33c-1.09,2.22-2.47,3.84-4.15,4.85-1.68,1.01-3.78,1.52-6.3,1.52-1.48,0-2.87-.26-4.15-.78-1.29-.52-2.42-1.26-3.41-2.22-.99-.96-1.77-2.15-2.33-3.56-.57-1.41-.85-3.03-.85-4.85,0-1.23.15-2.52.44-3.85l2.89-13.71-.74-.52-4.45,3.11-4.67-6.97,5.41-3.63c.94-.64,1.9-1.11,2.89-1.41.99-.3,1.98-.44,2.96-.44,1.09,0,2.12.19,3.11.56.99.37,1.85.89,2.59,1.56.74.67,1.33,1.48,1.78,2.45.44.96.67,2.06.67,3.3,0,.69-.07,1.43-.22,2.22l-2.67,12.3Z"/>
        <path class="cls-2" d="M452.44,127.09c1.83,0,3.4-.3,4.71-.89,1.31-.59,2.41-1.37,3.3-2.33.89-.96,1.59-2.08,2.11-3.34.52-1.26.93-2.53,1.22-3.82l.3-1.33h9.78l-.3,1.33c-.69,3.21-1.63,6.02-2.82,8.41-1.19,2.4-2.69,4.4-4.52,6-1.83,1.61-4,2.82-6.52,3.63-2.52.81-5.48,1.22-8.89,1.22-2.32,0-4.45-.35-6.37-1.04-1.93-.69-3.58-1.7-4.97-3.04-1.38-1.33-2.46-2.95-3.22-4.85-.77-1.9-1.15-4.09-1.15-6.56,0-.89.05-1.78.15-2.67.1-.89.27-1.9.52-3.04l2.45-11.56c1.53-7.16,4.25-12.49,8.15-15.97,3.9-3.48,8.99-5.23,15.27-5.23,2.47,0,4.68.4,6.63,1.19,1.95.79,3.61,1.87,4.97,3.22,1.36,1.36,2.4,2.95,3.11,4.78.72,1.83,1.07,3.78,1.07,5.86,0,.69-.05,1.38-.15,2.08-.1.69-.22,1.41-.37,2.15l-.3,1.33h-9.78l.3-1.33c.3-1.19.44-2.32.44-3.41,0-1.93-.56-3.57-1.67-4.93-1.11-1.36-3.05-2.04-5.82-2.04-1.63,0-3.11.31-4.45.93-1.33.62-2.5,1.46-3.48,2.52-.99,1.06-1.82,2.3-2.48,3.71s-1.17,2.88-1.52,4.41l-2.74,13.04c-.15.74-.27,1.47-.37,2.19-.1.72-.15,1.4-.15,2.04,0,2.22.58,4,1.74,5.34,1.16,1.33,3.1,2,5.82,2Z"/>
        <path class="cls-2" d="M495.43,98.19l-4.6,21.35c-.2.84-.3,1.66-.3,2.45,0,1.88.52,3.27,1.56,4.19,1.04.92,2.42,1.37,4.15,1.37,2.62,0,4.63-.85,6.04-2.56s2.46-4.11,3.15-7.23l4.15-19.57h9.34l-6.08,28.02.82.44,2.67-1.93,4.67,6.82-3.48,2.52c-.94.69-1.92,1.19-2.93,1.48-1.01.3-2.01.44-3,.44-2.03,0-3.81-.58-5.34-1.74-1.53-1.16-2.4-2.85-2.59-5.08h-1.33c-1.09,2.52-2.56,4.29-4.41,5.3s-3.94,1.52-6.26,1.52c-3.21,0-5.83-.98-7.86-2.93-2.03-1.95-3.04-4.68-3.04-8.19,0-1.23.15-2.57.44-4l4.89-22.68h9.34Z"/>
        <path class="cls-2" d="M533.23,149.77h-9.34l9.12-42.77-.74-.52-3.41,2.52-4.82-6.67,4-2.96c1.04-.74,2.11-1.3,3.22-1.67,1.11-.37,2.19-.56,3.22-.56,1.98,0,3.71.57,5.19,1.71,1.48,1.14,2.4,2.69,2.74,4.67h1.33c2.42-4.25,6.37-6.37,11.86-6.37,1.68,0,3.29.32,4.82.96,1.53.64,2.88,1.58,4.04,2.82,1.16,1.24,2.08,2.75,2.74,4.56.67,1.8,1,3.87,1,6.19,0,2.92-.36,5.83-1.07,8.75-.72,2.92-1.84,5.52-3.37,7.82-1.53,2.3-3.5,4.16-5.89,5.6-2.4,1.43-5.27,2.15-8.63,2.15-1.58,0-2.96-.19-4.15-.56s-2.2-.85-3.04-1.45c-.84-.59-1.53-1.27-2.08-2.04-.54-.77-.91-1.54-1.11-2.33h-1.33l-4.3,20.16ZM547.46,127.09c1.83,0,3.43-.33,4.82-1,1.38-.67,2.53-1.59,3.45-2.78.91-1.19,1.59-2.59,2.04-4.22.44-1.63.67-3.41.67-5.34,0-2.08-.67-3.88-2-5.41-1.33-1.53-3.19-2.3-5.56-2.3-1.68,0-3.19.33-4.52,1-1.33.67-2.47,1.59-3.41,2.78-.94,1.19-1.67,2.59-2.19,4.22-.52,1.63-.78,3.41-.78,5.34,0,2.32.67,4.19,2,5.6,1.33,1.41,3.16,2.11,5.48,2.11Z"/>
      </g>
    </g>
  </g>
</svg>