<?xml version="1.0" encoding="UTF-8"?>
<svg id="Layer_2" data-name="Layer 2" xmlns="http://www.w3.org/2000/svg" viewBox="0 0 191.39 150.86">
  <defs>
    <style>
      .cls-1 {
        fill: #8075ff;
      }

      .cls-2 {
        fill: #211a1d;
      }
    </style>
  </defs>
  <g id="Layer_1-2" data-name="Layer 1">
    <g>
      <path class="cls-2" d="M174.85,59.17c-3.76-1.85-7.96-2.3-12.27-1.55,1.41-5.12,2.69-10.11,3.86-14.85,1.6-6.49-2.39-13.03-8.89-14.57L40.17.33c-6.5-1.54-13.01,2.51-14.5,9.02C14.68,57.47,2.1,133.39,66.91,148.78c29.48,7,50.28-4.38,65.32-23.38,1.88,2.64,4.26,4.74,7.14,6.15,13.33,6.53,32.07-4.38,41.87-24.36,9.8-19.99,6.94-41.49-6.39-48.02ZM169.56,101.47c-6.75,13.78-17.8,22.21-24.68,18.84-2.31-1.13-3.86-3.46-4.63-6.57,7.54-12.55,13.32-26.98,17.89-41.18,4.06-2.75,8.06-3.67,11.2-2.14,6.88,3.37,6.98,17.27.23,31.05Z"/>
      <path class="cls-1" d="M40.15,31.92c-7.28,2.39-11.37,3.73-18.65,6.12L1.24,78.1c-2.85,5.64-.6,12.52,5.04,15.38l24.44,12.37c5.64,2.85,12.52.6,15.38-5.04l20.27-40.05c-2.39-7.28-3.73-11.37-6.12-18.65l-20.09-10.17ZM68.08,6.96l-4.34-1.03-15.28,30.2,3.87,1.96,15.75-31.13Z"/>
    </g>
  </g>
</svg>